<svg width="120" height="160" viewBox="0 0 120 160" fill="none" xmlns="http://www.w3.org/2000/svg">
<path d="M90.0044 53.3437C97.9597 53.3437 105.589 50.5337 111.214 45.5317C116.84 40.5298 120 33.7457 120 26.6719C120 19.5981 116.84 12.814 111.214 7.81201C105.589 2.81006 97.9597 0 90.0044 0L30.0132 0C22.0625 0 14.4375 2.80842 8.81551 7.80743C3.19354 12.8065 0.0351524 19.5866 0.0351524 26.6563C0.0351524 33.7259 3.19354 40.506 8.81551 45.5051C14.4375 50.5041 22.0625 53.3125 30.0132 53.3125C22.0579 53.3125 14.4284 56.1226 8.80309 61.1245C3.17782 66.1265 0.0175805 72.9106 0.0175805 79.9844C0.0175805 87.0582 3.17782 93.8423 8.80309 98.8442C14.4284 103.846 22.0579 106.656 30.0132 106.656C24.0806 106.653 18.2802 108.214 13.3456 111.143C8.41088 114.071 4.56353 118.234 2.29002 123.107C0.0165153 127.979 -0.58103 133.342 0.572948 138.516C1.72693 143.691 4.5806 148.445 8.7731 152.177C12.9656 155.909 18.3086 158.452 24.1265 159.484C29.9444 160.517 35.9759 159.992 41.4582 157.976C46.9405 155.96 51.6274 152.544 54.9263 148.159C58.2251 143.775 59.9877 138.619 59.9912 133.344V53.3437H90.0044ZM90.0044 53.3437C84.0753 53.3437 78.2794 54.9071 73.3495 57.8361C68.4196 60.7652 64.5773 64.9283 62.3083 69.7991C60.0393 74.6699 59.4457 80.0296 60.6024 85.2004C61.7591 90.3712 64.6142 95.1209 68.8067 98.8488C72.9992 102.577 78.3408 105.116 84.156 106.144C89.9711 107.173 95.9987 106.645 101.476 104.627C106.954 102.61 111.636 99.193 114.93 94.8094C118.224 90.4258 119.982 85.2721 119.982 80C119.981 72.9306 116.823 66.1509 111.201 61.1521C105.579 56.1533 97.9548 53.3446 90.0044 53.3437Z" fill="white"/>
</svg>
