<svg width="110" height="110" viewBox="0 0 110 110" fill="none" xmlns="http://www.w3.org/2000/svg">
<path d="M2.00007 0C0.895498 0 7.00114e-05 0.89543 6.93026e-05 2L1.28338e-06 108C5.74588e-07 109.105 0.895431 110 2 110H108C109.105 110 110 109.105 110 108V2C110 0.895429 109.105 0 108 0H2.00007ZM1.98337 4.04415C1.98337 2.93958 2.87881 2.04415 3.98337 2.04415H105.592C106.697 2.04415 107.592 2.93958 107.592 4.04415V105.574C107.592 106.679 106.697 107.574 105.592 107.574H3.98338C2.87881 107.574 1.98337 106.679 1.98337 105.574V4.04415ZM59.8981 21.749C56.19 21.749 54.0192 23.7306 54.0192 27.4359C54.0192 31.1998 56.1959 33.3046 59.8981 33.3046C63.6648 33.3046 65.8356 31.194 65.8356 27.43C65.8356 23.7248 63.6648 21.749 59.8981 21.749ZM79.9735 27.9342C78.9456 27.9342 78.095 28.7167 77.9346 29.732C77.1326 34.81 75.2096 37.3058 71.2431 38.2317C70.2516 38.4632 69.4791 39.298 69.4791 40.3161V42.3442C69.4791 43.4488 70.3769 44.3445 71.4814 44.3346C74.665 44.3061 74.5249 44.2633 74.5249 44.9715V62.0792C74.5249 69.4194 77.4643 72.3977 85.2618 72.3977C88.3521 72.36 91.4044 71.7579 94.2695 70.6262C95.1944 70.261 95.6388 69.2305 95.3436 68.2809L94.6987 66.2059C94.3569 65.1062 93.1564 64.5379 92.0468 64.8462C83.6661 67.1745 84.1235 60.9135 84.1235 59.9041V46.3325C84.1235 45.2279 85.019 44.3325 86.1235 44.3325H92.0684C93.1729 44.3325 94.0684 43.437 94.0684 42.3325V39.8248C94.0684 38.7202 93.1729 37.8248 92.0684 37.8248H86.1235C85.019 37.8248 84.1235 36.9293 84.1235 35.8248V29.9342C84.1235 28.8297 83.2281 27.9342 82.1235 27.9342H79.9735ZM29.7291 38.4814C22.935 38.5107 14.7386 41.2193 14.7386 51.1802C14.7386 54.6848 16.0452 57.4375 17.9989 59.2883C19.0155 60.2515 19.2531 61.9568 18.2341 62.9175C15.6582 65.3459 14.4159 66.8419 14.4159 68.792C14.4159 69.6742 14.6029 70.5064 15.0453 71.2379C15.7804 72.4533 16.1218 74.1583 15.2531 75.2821C14.2697 76.5545 13.7177 77.8904 13.7177 79.7731C13.7177 84.8737 18.2471 87.8813 29.999 87.8813C41.3696 87.8813 47.9525 83.6601 47.9525 76.1968C47.9525 67.2946 41.5337 67.1272 26.4418 66.2271C25.1686 66.1511 24.4405 64.7397 25.1185 63.6593V63.6593C25.5146 63.0281 26.2732 62.7365 27.0076 62.8633C32.3744 63.7898 44.8195 63.21 44.8195 51.7489C44.8195 50.5326 44.6193 49.4633 44.3002 48.5239C43.778 46.9865 44.6308 45.0141 46.2499 44.8923L46.5426 44.8703C47.586 44.7918 48.3926 43.9223 48.3926 42.8759V41.1674C48.3926 40.0628 47.4971 39.1674 46.3926 39.1674H35.9252C35.7652 39.1674 35.6058 39.1478 35.45 39.1113C33.5755 38.6729 31.6548 38.4614 29.7291 38.4814ZM53.9269 38.54C52.9249 38.54 52.0776 39.2814 51.9446 40.2745L51.6837 42.2223C51.5575 43.1639 52.1129 44.0656 53.0146 44.3649C55.5783 45.2159 55.8087 45.2396 55.8087 46.3844V65.5968C55.8087 66.7804 55.763 66.79 53.203 67.1052C52.2089 67.2275 51.467 68.074 51.467 69.0757V70.3977C51.467 71.5022 52.3624 72.3977 53.467 72.3977H68.0541C69.1587 72.3977 70.0541 71.5022 70.0541 70.3977V69.0763C70.0541 68.0744 69.3127 67.227 68.3196 67.094L66.7274 66.8808C65.7711 66.7518 65.7065 66.617 65.7065 65.591V40.54C65.7065 39.4355 64.8111 38.54 63.7065 38.54H53.9269ZM30.2631 44.9715C38.2424 44.9715 38.436 56.3453 30.0694 56.3453C21.6383 56.3453 22.0197 44.9715 30.2631 44.9715ZM22.4607 75.7108C22.8483 75.1616 23.5101 74.8778 24.1806 74.9245C35.7167 75.7288 38.2424 75.4963 38.2424 77.9146C38.2424 83.0855 21.4389 83.0855 21.4389 78.2956C21.4389 77.3549 21.8902 76.519 22.4607 75.7108Z" fill="white"/>
<path d="M86.2378 84.5522C85.1332 84.5522 84.2378 85.4477 84.2378 86.5522V107.966C84.2378 109.084 85.1537 109.985 86.2712 109.966L106.807 109.622C107.898 109.604 108.773 108.714 108.773 107.623V86.5522C108.773 85.4477 107.878 84.5522 106.773 84.5522H86.2378ZM86.617 88.8657C86.617 87.7611 87.5124 86.8657 88.617 86.8657H106.03C107.134 86.8657 108.03 87.7611 108.03 88.8657V105.687C108.03 106.791 107.134 107.687 106.03 107.687H88.617C87.5124 107.687 86.617 106.791 86.617 105.687V88.8657ZM97.2138 89.1791C92.553 89.1791 88.9962 92.6203 88.9962 97.1431C88.9962 100.717 91.2716 103.783 94.5471 104.914C94.6391 104.945 94.7342 104.973 94.8315 104.973C95.1545 104.972 95.2712 104.75 95.2712 104.565V104.565C95.2712 103.529 94.2439 102.833 93.2796 102.455C92.912 102.31 92.5934 102.061 92.4332 101.643C92.418 101.604 92.4037 101.563 92.3864 101.525C92.3028 101.337 92.0161 100.745 91.6235 100.471C91.533 100.408 91.4325 100.36 91.3484 100.288C91.1801 100.145 90.9666 99.8998 91.4691 99.8861C91.5134 99.8849 91.5576 99.8872 91.6014 99.8944C91.8064 99.928 92.4457 100.082 92.8302 100.73C93.4689 101.83 94.4838 101.696 95.0551 101.504C95.1978 101.456 95.3 101.276 95.3396 101.131V101.131C95.44 100.763 95.1951 100.251 94.8193 100.187C93.3223 99.9283 92.0439 99.2876 92.0439 96.7116C92.0439 96.3684 92.0811 96.0907 92.157 95.8465C92.3874 95.1049 92.6096 94.3058 92.6812 93.5325C92.6826 93.5172 92.6841 93.5017 92.6858 93.4861C92.7504 92.8854 93.2889 92.4868 93.853 92.703C94.0613 92.7829 94.2719 92.8829 94.464 92.9834C94.9744 93.2504 95.5617 93.3473 96.1313 93.262C96.536 93.2014 96.9451 93.1701 97.3554 93.1686C97.7657 93.1686 98.1796 93.2019 98.584 93.2631C99.153 93.3493 99.7396 93.2518 100.249 92.9849C100.44 92.885 100.649 92.7856 100.856 92.7058C101.422 92.4875 101.963 92.8877 102.027 93.4912C102.029 93.5065 102.03 93.5217 102.031 93.5368C102.102 94.3079 102.318 95.0955 102.595 95.8187C102.691 96.0698 102.743 96.3555 102.743 96.7116C102.743 98.9281 101.765 99.7104 100.533 100.049C99.9324 100.215 99.461 101.207 99.461 101.83V101.83C99.461 102.932 99.4515 104.301 99.4515 104.567C99.4515 104.751 99.5676 104.971 99.8824 104.973C99.9793 104.974 100.074 104.945 100.165 104.914C103.438 103.782 105.65 100.717 105.65 97.1431C105.65 92.6203 101.876 89.1791 97.2138 89.1791ZM92.0443 100.152C92.0444 100.152 92.0444 100.152 92.0443 100.152C91.978 100.133 91.9213 100.145 91.9023 100.182C91.8833 100.219 91.9106 100.271 91.9773 100.309C92.0344 100.336 92.0998 100.328 92.1188 100.281C92.1378 100.244 92.1106 100.189 92.0442 100.152C92.0441 100.152 92.0442 100.152 92.0443 100.152V100.152ZM92.346 100.426C92.3151 100.419 92.2842 100.422 92.2604 100.446C92.2499 100.454 92.2422 100.464 92.2372 100.475C92.1936 100.571 92.3237 100.698 92.4247 100.667C92.4366 100.663 92.4478 100.657 92.4579 100.647C92.4826 100.628 92.4923 100.599 92.4877 100.567C92.4778 100.497 92.4147 100.443 92.346 100.426V100.426ZM92.6993 100.85C92.6831 100.844 92.6656 100.842 92.6483 100.844C92.6309 100.845 92.6142 100.851 92.5994 100.86C92.5423 100.897 92.5423 100.981 92.5994 101.054C92.6565 101.127 92.7422 101.163 92.7898 101.126C92.8457 101.089 92.8457 100.996 92.7898 100.924C92.769 100.891 92.7372 100.865 92.6993 100.85ZM93.0853 101.308C93.0854 101.308 93.0854 101.308 93.0853 101.308C93.0672 101.306 93.0487 101.308 93.0316 101.314C93.0143 101.321 92.999 101.331 92.9872 101.345C92.9408 101.392 92.9599 101.481 93.0348 101.546C93.0452 101.556 93.0559 101.565 93.0669 101.573C93.1758 101.651 93.3079 101.497 93.2232 101.393C93.2171 101.386 93.2106 101.379 93.2037 101.372C93.1726 101.339 93.131 101.316 93.0853 101.309C93.0853 101.309 93.0853 101.308 93.0853 101.308V101.308ZM93.7331 101.675C93.6498 101.657 93.5463 101.682 93.5273 101.747C93.5262 101.751 93.5254 101.754 93.5248 101.758C93.5039 101.906 93.7986 101.986 93.8697 101.854C93.8722 101.849 93.8743 101.844 93.8759 101.839C93.9044 101.776 93.8366 101.703 93.7331 101.675ZM95.0072 101.704C95.0064 101.704 95.0056 101.704 95.0048 101.704C94.9126 101.723 94.8466 101.788 94.8561 101.86C94.8656 101.924 94.9596 101.96 95.0535 101.941C95.157 101.923 95.2237 101.86 95.2046 101.794C95.1951 101.729 95.1023 101.694 95.0072 101.704V101.704ZM94.3838 101.777C94.2791 101.777 94.2054 101.831 94.2054 101.896C94.2054 101.969 94.2803 102.026 94.3933 102.016C94.498 102.016 94.5718 101.961 94.5718 101.896C94.5718 101.822 94.479 101.768 94.3838 101.777Z" fill="white"/>
</svg>
